<svg id="Layer_1" data-name="Layer 1" xmlns="http://www.w3.org/2000/svg" viewBox="0 0 595.28 113.93"><defs><style>.cls-1{fill:#3b90c0;}.cls-2{fill:#4d4e4d;opacity:0.39;}</style></defs><title>navbar_logo</title><path class="cls-1" d="M24.63,39.18,30,36C41.79,29,59.8,33.54,66.55,48.29A26.46,26.46,0,0,1,69,59.41c0,9.8,0,19.6.06,29.4,0,1.49-.54,1.85-1.9,1.8-2.18-.09-4.36-.1-6.54,0-1.44.07-1.84-.44-1.83-1.85q.08-13.67,0-27.34a18.57,18.57,0,0,0-3.15-11c-4.15-5.79-9.86-8.31-16.86-7.22A17,17,0,0,0,25,56.73a19.52,19.52,0,0,0-.37,3.74c0,9.46,0,18.91,0,28.36,0,1.48-.36,2.06-1.92,2-2.06-.12-4.12,0-6.19,0-2.36,0-2.36,0-2.36-2.29V44c0-14.21.05-28.42,0-42.62,0-1.81.52-2.27,2.23-2.16a54.71,54.71,0,0,0,6.53,0c1.4-.07,1.73.43,1.72,1.76,0,12,0,24,0,35.93Z"/><path class="cls-1" d="M85.61,93.49c2.89,0,5.34,0,7.78.05.43,0,.94.56,1.23,1,1.76,2.53,3.46,5.1,5.32,7.88l5.54-8.09c1.55-2.28,3.17-4.5,4.58-6.86a4.73,4.73,0,0,0,.66-3c-1.92-10.86-4-21.69-6-32.54C103.31,44,101.93,36,100.52,28.12a4.24,4.24,0,0,0-.76-1.89C96.72,45,93.68,63.7,90.6,82.71h10.05c0,2.15,0,4.08,0,6,0,.27-.44.76-.68.76-5.72,0-11.43,0-17.32,0,.26-2,.46-3.7.74-5.43,1.17-7.4,2.39-14.79,3.55-22.18,1.7-10.9,3.36-21.8,5-32.69.39-2.48.81-5,1.24-7.43a3,3,0,0,0-.92-3.17A10.51,10.51,0,0,1,89.2,7.47a10.62,10.62,0,0,1,9-7.93A11.11,11.11,0,0,1,110,5.65a11,11,0,0,1-2.52,13,2.67,2.67,0,0,0-.87,2.87c1.18,6.35,2.4,12.69,3.54,19q4.08,22.79,8.07,45.57a3.27,3.27,0,0,1-.37,2.21c-5.71,8.29-11.5,16.54-17.27,24.79-.16.23-.37.42-.69.78Z"/><path class="cls-1" d="M186.13,63.81c1.06,7.07,4.05,12.51,10.17,15.61,7.79,4,14.48.84,20.86-4.07l8.57,5.1a29.92,29.92,0,0,1-13.37,8.76c-8.18,2.49-16.08,2.22-23.32-2.76a28.43,28.43,0,0,1-12.55-21.12,30.31,30.31,0,0,1,4.62-20.48c4-6.19,9.59-10.36,16.85-11.75,13.35-2.56,24.88,4.45,30,16.3a34.56,34.56,0,0,1,2.41,12.38c.08,1.59-.43,2.06-2,2-10.37-.06-20.74,0-31.12,0Zm1.12-8.7h32c-1.27-6.43-8.31-12.31-14.69-12.79C195.85,41.67,188.87,48.86,187.25,55.11Z"/><path class="cls-1" d="M131.82,32.58c3.28,0,6.3,0,9.33,0,1,0,1.13.51,1.12,1.31,0,1.77,0,3.54,0,5.69,6.29-4.75,13.28-6.52,21-7,0,3.36,0,6.5-.06,9.63,0,.3-.83.77-1.32.83a24.17,24.17,0,0,0-15.05,7.08,15.27,15.27,0,0,0-4.59,11.11c.07,9.1,0,18.21.05,27.32,0,1.7-.53,2.2-2.16,2.11a61.32,61.32,0,0,0-6.36,0c-1.47.07-1.95-.37-1.95-1.92.06-13.92,0-27.84,0-41.76C131.81,42.23,131.82,37.54,131.82,32.58Z"/><path class="cls-2" d="M356.67,88.07a21.89,21.89,0,0,1-11.3-2.86c-3.26-1.9-4.79-2.55-7.63-4.89v29.09h-10.5V32.46h10.5l-.05,7c2.9-2.71,2.77-3.49,6.26-5.12a25.23,25.23,0,0,1,11-2.76,23.86,23.86,0,0,1,10.25,2.19,24.77,24.77,0,0,1,8.15,6.08,29,29,0,0,1,5.41,8.94,29.84,29.84,0,0,1,1.95,10.86A32.78,32.78,0,0,1,377.64,74a26,26,0,0,1-8.52,10.24A21.15,21.15,0,0,1,356.67,88.07Zm-4.73-12a12.79,12.79,0,0,0,5.88-1.34,14.39,14.39,0,0,0,4.57-3.66,16.3,16.3,0,0,0,2.95-5.26,19.09,19.09,0,0,0,1-6.14,17.44,17.44,0,0,0-1.11-6.29,15.26,15.26,0,0,0-8.09-8.55,14.65,14.65,0,0,0-6.05-1.24,13.08,13.08,0,0,0-4,.66,17.07,17.07,0,0,0-3.95,1.9A15.79,15.79,0,0,0,339.79,49a10.4,10.4,0,0,0-2.05,3.58V65.41a20.2,20.2,0,0,0,3.42,5.44,15.68,15.68,0,0,0,5,3.85A13,13,0,0,0,351.94,76.09Z"/><path class="cls-2" d="M393.06,70.94a15.07,15.07,0,0,1,3-9.3,19.06,19.06,0,0,1,8.35-6.18,32.56,32.56,0,0,1,12.3-2.18,48.36,48.36,0,0,1,7,.52A24.63,24.63,0,0,1,430,55.49V52.56c0-3.44-1-6.09-3.1-8s-5.14-2.79-9.2-2.79A23.79,23.79,0,0,0,409,43.4,43.32,43.32,0,0,0,400.42,48l-4.52-9.25a44.78,44.78,0,0,1,11.19-5.36,40.23,40.23,0,0,1,12-1.79q11.78,0,18.34,5.81T444,54v17.3a4.84,4.84,0,0,0,.79,3.11,3.74,3.74,0,0,0,2.58,1.14V87c-1.26.21-2.4.39-3.42.53a19.51,19.51,0,0,1-2.58.21q-4.2,0-6.35-1.89a8.07,8.07,0,0,1-2.69-4.63l-.31-2.84a24,24,0,0,1-8.94,7.15,25.41,25.41,0,0,1-10.93,2.52,21.26,21.26,0,0,1-9.83-2.23,17.14,17.14,0,0,1-6.83-6.13A16,16,0,0,1,393.06,70.94Zm34.27,2.73a14.46,14.46,0,0,0,1.89-2.46A4.48,4.48,0,0,0,430,69V63.52a31.55,31.55,0,0,0-11-2.15,16.09,16.09,0,0,0-9,2.31,7,7,0,0,0-3.52,6.1,7.15,7.15,0,0,0,1.16,3.89,8.29,8.29,0,0,0,3.36,3,11.31,11.31,0,0,0,5.26,1.13,17,17,0,0,0,6.2-1.18A15.35,15.35,0,0,0,427.33,73.67Z"/><path class="cls-2" d="M490.07,88.07c-21.87,1.34-36.27-24-25.6-42.36,9.35-18.54,41.39-19,50.41,0l-11.55,2.5c-4-7.51-13-8.78-21.95-5.13-7,2.89-9.66,9.13-9.8,16.72-.29,15.62,27.06,23.08,30.86,11.23l12.65,2.75C510.69,83.12,500.52,88.23,490.07,88.07Z"/><path class="cls-2" d="M304.82,19.24a22,22,0,0,0-3.19-2.38A35.65,35.65,0,0,0,296,14a60.49,60.49,0,0,0-7.19-2.44A25.38,25.38,0,0,0,281,10.49c-4.44.23-9.56,3.42-12.35,6.23-2.08,2.09-3.69,4.2-3.56,7.33a7.9,7.9,0,0,0,2.25,5.72c1.5,1.41,2.91,3.13,5.73,4.39a70.59,70.59,0,0,0,11.35,4.29,79.08,79.08,0,0,1,15.18,5.16c4.29,2,8.49,2.84,10.78,6.12s3.44,7.6,3.44,13a25.94,25.94,0,0,1-2.63,12.12A21.72,21.72,0,0,1,303.9,83a32.25,32.25,0,0,1-10.5,4.54A52.86,52.86,0,0,1,280.91,89a65.44,65.44,0,0,1-13.25-1.37,69.47,69.47,0,0,1-12.74-3.94,58.32,58.32,0,0,1-11.25-6.19l8.68-10.55a25,25,0,0,0,4,2.94,54.1,54.1,0,0,0,7,3.62,57.9,57.9,0,0,0,9,3.06,39.28,39.28,0,0,0,9.87,1.25c4.66,0,10-2.6,12.37-4.16s3.86-6.65,3.86-9.53a7.44,7.44,0,0,0-2.87-6.22,26.35,26.35,0,0,0-8-3.92q-5.11-1.69-12.12-3.68a74.13,74.13,0,0,1-14-5.28,20.64,20.64,0,0,1-8.37-7.41,21,21,0,0,1-2.75-11.2q0-9.07,4.31-15.24A26.88,26.88,0,0,1,266.33,1.8,40.89,40.89,0,0,1,282.7-1.37,49,49,0,0,1,294.51,0a58.53,58.53,0,0,1,10.43,3.62,62,62,0,0,1,8.75,4.88Z"/><path class="cls-2" d="M537.28,62c1.06,7.08,4.06,12.52,10.17,15.62,7.8,3.94,14.48.84,20.86-4.08l8.57,5.1a29.85,29.85,0,0,1-13.37,8.77c-8.17,2.49-16.08,2.22-23.32-2.76a28.44,28.44,0,0,1-12.55-21.12A30.34,30.34,0,0,1,532.26,43c4-6.19,9.59-10.36,16.85-11.75,13.35-2.55,24.89,4.45,30,16.31A35,35,0,0,1,581.55,60c.07,1.58-.44,2.06-2,2.05-10.37-.06-20.74,0-31.11,0Zm1.12-8.69h32c-1.26-6.43-8.31-12.31-14.68-12.79C547,39.85,540,47.05,538.4,53.3Z"/></svg>